<?xml version="1.0" standalone="no"?>
<!DOCTYPE svg PUBLIC "-//W3C//DTD SVG 20010904//EN"
 "http://www.w3.org/TR/2001/REC-SVG-20010904/DTD/svg10.dtd">
<svg version="1.0" xmlns="http://www.w3.org/2000/svg"
 width="953.000000pt" height="1280.000000pt" viewBox="0 0 953.000000 1280.000000"
 preserveAspectRatio="xMidYMid meet">
<metadata>
Created by potrace 1.15, written by Peter Selinger 2001-2017
</metadata>
<g transform="translate(0.000000,1280.000000) scale(0.100000,-0.100000)"
fill="#fff" stroke="none">
<path d="M3930 12774 c-30 -13 -62 -24 -71 -24 -9 0 -19 -6 -22 -13 -3 -8 -25
-23 -49 -35 -59 -27 -69 -41 -84 -120 -7 -37 -20 -98 -29 -137 -9 -38 -20
-139 -25 -223 -5 -84 -11 -161 -15 -171 -3 -10 -26 -26 -50 -35 -79 -31 -401
-10 -495 32 -14 6 -95 16 -182 21 -189 13 -252 4 -295 -41 -26 -28 -28 -34
-28 -118 0 -85 1 -90 30 -122 17 -18 39 -50 49 -70 10 -20 25 -39 32 -42 8 -3
14 -11 14 -19 0 -7 18 -31 40 -52 22 -21 40 -44 40 -51 0 -13 63 -64 78 -64 5
0 15 7 22 15 7 8 25 15 41 15 22 0 31 -7 45 -36 16 -34 16 -37 1 -49 -9 -7
-17 -21 -17 -32 0 -28 97 -132 144 -154 42 -20 85 -45 146 -85 39 -26 151 -59
262 -77 68 -11 74 -14 87 -44 8 -18 24 -34 37 -37 12 -3 33 -20 45 -37 18 -26
20 -35 10 -51 -8 -13 -8 -24 -1 -38 5 -10 10 -43 10 -72 0 -31 9 -74 21 -104
l22 -52 -24 -48 c-19 -38 -35 -53 -76 -75 -29 -14 -70 -29 -90 -32 -45 -8
-104 -35 -152 -71 -19 -14 -39 -26 -43 -26 -5 0 -52 -25 -104 -56 -53 -31
-108 -59 -122 -63 -42 -11 -49 -61 -17 -116 33 -56 33 -104 0 -139 -14 -15
-25 -31 -25 -37 0 -5 -8 -9 -17 -9 -17 0 -43 -40 -43 -65 0 -6 14 -21 30 -33
17 -13 30 -31 30 -42 0 -11 -22 -52 -50 -92 -35 -51 -50 -82 -50 -105 0 -18
-4 -41 -9 -51 -6 -9 -12 -29 -15 -44 -11 -49 -59 -68 -174 -68 -90 0 -104 -2
-129 -23 -29 -24 -46 -32 -128 -67 -27 -12 -64 -28 -82 -36 -17 -8 -40 -14
-50 -14 -41 0 -57 -35 -63 -134 -6 -104 -8 -108 -100 -206 -34 -36 -68 -81
-77 -100 -9 -19 -24 -53 -34 -76 -11 -22 -19 -46 -19 -52 0 -7 -15 -43 -34
-80 -18 -38 -36 -86 -40 -107 -4 -22 -17 -52 -28 -67 -11 -16 -23 -56 -28 -90
-6 -39 -20 -79 -39 -110 -17 -27 -31 -54 -31 -60 0 -6 -8 -29 -19 -52 -31 -68
-60 -130 -70 -146 -5 -8 -19 -39 -32 -67 -12 -29 -31 -60 -41 -70 -10 -9 -18
-28 -18 -43 0 -15 -27 -80 -60 -144 -33 -65 -65 -138 -72 -164 -6 -26 -17 -58
-25 -72 -7 -14 -13 -32 -13 -40 0 -25 -39 -140 -55 -163 -8 -12 -15 -43 -15
-69 0 -26 -4 -49 -9 -52 -4 -3 -11 -31 -14 -62 -3 -31 -13 -64 -21 -73 -9 -10
-16 -24 -16 -32 -1 -8 -12 -45 -26 -84 -14 -38 -32 -92 -40 -120 -8 -27 -25
-72 -39 -100 -13 -27 -27 -66 -31 -85 -4 -19 -19 -53 -34 -75 -15 -22 -30 -53
-34 -70 -4 -16 -14 -37 -21 -45 -8 -9 -24 -37 -35 -62 -11 -26 -25 -50 -29
-53 -8 -4 -25 -37 -62 -120 -14 -31 -28 -106 -29 -148 0 -20 -9 -56 -19 -80
-22 -49 -28 -74 -46 -222 -7 -60 -24 -144 -38 -185 -13 -41 -27 -100 -29 -131
-3 -44 -13 -69 -41 -112 -41 -62 -50 -67 -117 -67 -66 0 -97 -32 -129 -131
-13 -41 -32 -83 -42 -94 -10 -11 -25 -51 -35 -90 -9 -38 -22 -79 -30 -91 -7
-12 -16 -39 -20 -60 -3 -21 -10 -43 -14 -49 -4 -5 -19 -47 -34 -93 -38 -122
-34 -287 9 -342 51 -65 45 -239 -13 -330 -12 -19 -22 -40 -22 -47 0 -6 -13
-38 -29 -70 -16 -32 -34 -72 -41 -90 -6 -17 -20 -39 -31 -49 -10 -9 -19 -23
-19 -30 0 -7 -11 -21 -24 -31 -23 -17 -24 -23 -27 -168 -3 -208 -2 -215 19
-215 29 -1 48 -22 81 -92 52 -111 79 -229 80 -347 1 -50 6 -72 27 -105 14 -22
40 -65 58 -94 19 -28 36 -72 39 -96 4 -24 16 -60 28 -80 17 -30 21 -47 16 -86
-3 -27 -12 -59 -20 -72 -8 -13 -20 -41 -27 -63 -7 -22 -22 -50 -34 -63 -19
-22 -21 -37 -26 -215 -5 -182 -12 -225 -39 -247 -4 -3 -26 -34 -49 -69 -30
-46 -42 -74 -42 -100 0 -27 -8 -45 -29 -67 -16 -16 -31 -46 -35 -69 -4 -21
-15 -51 -25 -65 -19 -29 -36 -78 -46 -135 -4 -22 -15 -53 -25 -70 -9 -16 -23
-48 -30 -70 -7 -22 -19 -47 -26 -55 -7 -9 -21 -39 -30 -68 -9 -28 -25 -60 -35
-71 -11 -11 -26 -45 -34 -76 -8 -31 -23 -71 -35 -89 -22 -37 -26 -86 -8 -104
7 -7 24 -12 39 -12 50 0 59 -9 59 -59 0 -27 -8 -58 -18 -76 -18 -30 -42 -109
-42 -139 0 -17 36 -22 58 -8 12 8 75 131 102 202 8 19 22 44 32 55 10 10 23
37 29 60 6 22 16 47 23 55 22 28 35 65 41 121 4 36 13 63 24 73 10 10 26 38
36 64 23 65 84 194 100 212 7 8 18 33 25 55 7 22 22 52 32 66 11 14 23 50 27
80 7 53 13 67 63 159 59 107 71 126 87 145 10 11 29 43 42 70 26 56 25 55 72
110 18 22 40 56 47 75 8 19 20 39 27 43 7 4 19 30 27 57 8 28 21 63 29 78 21
39 34 71 48 117 6 22 17 43 23 47 15 10 14 178 -1 209 -43 87 -56 130 -44 155
6 14 11 34 11 44 0 33 51 79 109 98 90 28 95 74 13 100 -35 12 -44 20 -53 51
-14 47 4 177 28 203 35 39 108 12 123 -44 6 -20 15 -40 20 -43 6 -3 10 -14 10
-24 0 -10 14 -37 30 -59 25 -36 36 -42 65 -42 l35 0 0 64 c0 56 -4 71 -30 109
-28 42 -30 51 -30 136 0 88 -10 129 -49 201 -4 8 -14 39 -21 69 -7 30 -21 69
-31 85 -9 17 -24 54 -32 82 -8 28 -23 66 -32 84 -19 38 -14 74 17 108 19 20
31 22 108 22 48 0 102 3 119 6 38 8 76 43 113 104 39 63 52 84 58 90 34 34
109 130 114 146 3 12 15 29 26 39 11 10 20 22 20 27 0 5 16 34 35 64 19 30 35
58 35 62 0 5 12 19 26 33 41 38 94 115 105 151 11 40 2 88 -17 88 -8 0 -14 5
-14 11 0 6 -18 32 -40 58 -37 43 -40 52 -40 105 0 48 6 68 35 117 19 33 35 63
35 67 0 4 9 25 20 47 11 22 20 49 20 61 0 11 13 39 29 60 16 23 31 60 35 88 7
42 51 145 102 236 8 14 35 70 60 125 25 55 57 123 70 151 12 28 30 57 39 64
20 17 90 7 116 -16 35 -31 23 -182 -27 -348 -8 -26 -19 -85 -24 -130 -8 -76
-28 -205 -49 -321 -6 -27 -10 -81 -10 -118 -1 -38 -7 -83 -15 -100 -8 -18 -19
-49 -26 -69 -13 -43 -46 -88 -64 -88 -7 0 -21 9 -31 20 -10 11 -23 19 -28 17
-15 -5 -36 -78 -42 -152 -4 -38 -13 -87 -21 -108 -8 -20 -14 -67 -14 -103 0
-68 9 -89 62 -152 54 -64 70 -108 65 -181 -8 -97 -24 -195 -42 -248 -9 -26
-20 -75 -25 -108 -9 -69 -34 -161 -48 -178 -5 -7 -12 -40 -15 -73 -4 -34 -16
-77 -27 -96 -12 -21 -24 -69 -31 -119 -7 -56 -16 -91 -29 -104 -10 -11 -25
-42 -35 -70 -9 -27 -22 -59 -29 -70 -7 -11 -21 -90 -30 -175 -14 -129 -16
-217 -12 -530 3 -206 9 -435 13 -507 l8 -133 38 -31 c65 -54 71 -73 78 -279 5
-140 11 -203 27 -260 17 -64 21 -117 27 -360 4 -187 11 -306 21 -345 10 -44
34 -269 34 -322 0 -2 931 -2 2069 -1 l2070 3 30 29 c17 17 31 40 31 52 0 20
-4 21 -50 18 -38 -3 -51 0 -59 14 -8 14 -1 20 37 39 30 14 51 19 61 13 22 -11
43 6 65 55 10 22 25 47 33 55 7 8 24 35 36 60 18 35 43 58 108 102 46 32 97
69 113 83 15 14 32 25 36 25 5 0 18 14 30 30 28 39 78 41 141 5 24 -14 51 -27
59 -31 8 -3 30 -12 48 -20 18 -8 41 -14 50 -14 10 0 28 -7 40 -16 33 -23 200
-29 248 -9 44 18 36 19 67 -8 14 -12 30 -40 35 -62 5 -22 11 -44 12 -50 4 -13
-5 -38 -35 -100 -31 -63 -32 -93 -2 -104 12 -5 31 -23 42 -40 l20 -31 130 3
c120 2 134 0 179 -22 l49 -24 38 21 c47 27 69 27 119 2 49 -25 72 -25 95 0 13
14 31 20 60 20 48 0 69 -18 80 -67 6 -30 10 -33 45 -33 29 0 40 5 45 18 3 11
15 24 28 30 12 7 33 21 48 32 35 29 209 33 256 5 28 -17 33 -17 80 -1 71 24
199 25 242 3 41 -21 79 -21 105 -2 26 20 99 19 141 -1 18 -8 40 -28 47 -44
l14 -29 34 31 c42 38 88 58 134 58 62 0 90 -21 110 -82 3 -10 10 -18 16 -18 7
0 10 183 10 565 0 548 -1 566 -21 617 l-21 53 21 16 c18 15 21 28 21 94 0 86
-4 94 -100 195 -30 33 -67 76 -81 97 -14 21 -39 45 -55 53 -16 8 -39 23 -51
33 -24 22 -43 15 -43 -14 0 -41 23 -109 36 -109 8 0 14 -5 14 -10 0 -6 8 -14
17 -17 33 -13 98 -93 108 -135 4 -15 24 -38 46 -54 21 -15 39 -34 39 -43 0 -9
3 -26 6 -38 10 -37 -30 -40 -75 -4 -21 17 -41 31 -44 31 -16 0 -167 145 -195
188 -8 12 -19 22 -24 22 -5 0 -21 14 -35 30 -14 17 -45 42 -69 56 -24 14 -52
36 -62 48 -9 12 -37 34 -62 50 -57 36 -115 109 -130 164 -8 32 -18 46 -37 53
-15 5 -44 25 -64 44 -21 19 -55 43 -76 54 -22 10 -57 37 -79 58 -22 21 -53 49
-69 63 -17 15 -41 48 -55 75 -13 27 -39 64 -57 83 -18 19 -33 39 -33 43 0 5
-18 22 -41 38 -22 16 -55 49 -73 73 -19 24 -55 59 -81 78 -26 19 -62 56 -81
81 -33 45 -134 138 -151 140 -4 0 -37 35 -73 76 -48 57 -85 118 -146 240 -45
90 -87 169 -92 176 -6 6 -15 31 -21 54 -7 24 -19 47 -29 52 -9 5 -45 65 -78
133 -66 132 -76 157 -93 231 -7 27 -21 58 -31 70 -22 23 -25 52 -10 91 8 21
16 26 45 26 25 0 37 5 41 18 4 9 12 31 20 49 18 41 18 81 -2 140 -12 34 -14
61 -9 98 4 27 7 62 7 77 -1 30 -35 102 -63 133 -9 11 -48 54 -86 96 -38 42
-82 102 -98 134 -37 76 -88 125 -159 153 -54 21 -60 22 -76 7 -42 -38 -45 -70
-24 -242 4 -41 3 -53 -8 -53 -19 0 -148 139 -148 159 0 17 -77 172 -110 221
-9 14 -29 59 -45 100 -17 41 -41 93 -56 115 -14 22 -32 56 -39 75 -24 63 -70
138 -94 154 -15 9 -26 29 -31 53 -4 21 -18 62 -31 91 -13 29 -24 57 -24 62 0
5 -13 24 -28 42 -16 18 -34 49 -42 68 -7 19 -22 54 -32 78 -12 26 -18 60 -16
85 l3 42 23 -22 c12 -13 25 -23 28 -23 3 0 31 -22 61 -50 30 -27 62 -50 71
-50 9 0 32 -9 51 -21 33 -20 34 -21 28 -78 -9 -84 -2 -101 42 -101 31 0 45 8
86 50 27 28 44 50 37 50 -7 0 -12 7 -12 15 0 8 4 15 9 15 6 0 12 15 14 33 6
42 -1 -182 -9 -295 -9 -119 0 -166 39 -211 18 -20 41 -37 52 -37 53 0 65 -11
65 -54 0 -29 7 -49 21 -65 24 -26 39 -24 57 10 16 31 9 616 -8 669 -13 37 -35
91 -52 127 -13 27 -4 91 18 130 9 16 32 40 50 53 18 14 43 38 56 55 23 31 24
38 47 376 12 171 19 223 33 264 14 37 37 65 54 65 7 0 43 -29 79 -65 41 -40
75 -65 88 -65 12 0 47 -13 77 -29 39 -20 76 -30 129 -35 41 -4 89 -13 105 -22
87 -43 300 -43 381 1 26 14 58 25 70 25 13 0 38 7 58 15 37 15 59 48 83 125
25 80 21 90 -51 145 -55 43 -67 57 -80 102 -9 28 -29 71 -45 95 -16 24 -30 46
-30 50 0 10 -60 98 -90 131 -17 19 -27 45 -31 80 -9 76 -2 101 32 116 43 19
79 1 109 -55 22 -39 77 -94 95 -94 3 0 22 -16 42 -35 43 -42 60 -42 133 -7
l54 27 -3 55 c-2 50 -24 126 -51 180 -5 11 -14 29 -20 39 -5 11 -14 48 -20 83
-8 44 -21 77 -45 109 -29 41 -39 47 -82 54 -26 4 -54 12 -62 18 -8 7 -51 12
-105 12 l-91 0 -3 31 c-4 44 14 84 38 84 12 0 30 15 46 40 25 38 26 44 17 99
-7 43 -6 73 3 108 17 63 17 88 1 102 -18 14 -176 16 -190 2 -14 -14 -67 -15
-67 -1 0 6 5 10 10 10 6 0 10 7 10 15 0 8 18 26 40 40 22 14 40 32 40 39 0 20
95 116 115 116 35 0 73 30 81 62 14 66 66 95 111 63 20 -14 26 -14 62 4 70 36
82 65 82 190 0 103 -2 113 -30 166 -17 32 -31 71 -31 87 0 38 -35 55 -81 39
-39 -13 -89 -14 -122 -2 -47 18 -133 107 -146 153 -18 60 -73 172 -92 188 -14
12 -27 50 -39 120 -7 41 -16 91 -21 110 -15 58 -10 97 18 157 38 80 38 151 2
190 -15 15 -36 46 -47 68 -39 79 -54 84 -287 108 -143 15 -165 24 -165 72 0
19 -4 35 -10 35 -5 0 -16 13 -25 30 -16 31 -31 37 -149 60 l-59 12 5 69 c3 38
11 75 17 83 7 8 42 24 79 35 52 17 80 20 131 15 l66 -7 -19 22 c-11 11 -24 21
-31 21 -7 0 -30 22 -52 48 -29 34 -53 52 -84 61 -24 7 -59 26 -77 42 -50 45
-104 76 -142 83 -61 13 -120 38 -120 52 0 8 -4 14 -9 14 -5 0 -12 11 -15 24
-3 13 -17 31 -31 40 -27 18 -34 57 -12 73 6 5 31 15 54 22 35 10 53 9 100 -3
62 -16 83 -10 83 26 0 28 -67 86 -118 102 -30 10 -41 28 -59 98 -8 34 -19 68
-24 74 -10 12 -39 199 -39 252 0 24 -9 42 -30 64 -16 16 -30 38 -30 48 0 10
-9 39 -20 65 -11 26 -20 66 -20 90 0 23 -7 60 -16 81 -12 28 -14 54 -9 100 6
57 -6 131 -25 159 -4 6 -13 35 -20 65 -7 30 -16 65 -21 78 -5 13 -9 49 -9 80
0 85 -7 102 -41 102 -16 0 -29 -4 -29 -10 0 -5 -7 -10 -16 -10 -17 0 -17 -6 5
-115 5 -27 10 -92 10 -143 1 -54 6 -100 13 -112 18 -29 -17 -61 -126 -115 -73
-36 -102 -45 -143 -45 -28 0 -55 -4 -58 -10 -14 -23 -144 -49 -285 -55 -165
-8 -194 -18 -216 -73 -50 -124 -82 -162 -134 -162 -15 0 -33 -7 -40 -15 -7 -8
-16 -15 -20 -15 -4 0 -36 -29 -71 -66 -78 -79 -117 -92 -216 -73 -67 14 -68
14 -64 81 2 24 -5 50 -18 72 -26 42 -27 78 -1 101 11 10 20 26 20 35 0 17 29
46 67 68 13 6 47 12 77 12 48 0 57 3 80 31 14 17 26 34 26 39 0 4 17 29 39 55
32 39 39 56 43 103 4 40 10 59 23 67 65 37 72 86 22 145 l-33 39 14 158 c7 87
10 168 7 181 l-5 22 -673 -1 -672 -1 -55 -24z m1297 -190 c3 -9 -6 -28 -25
-47 -22 -23 -36 -55 -53 -117 -12 -47 -28 -92 -36 -101 -7 -8 -13 -21 -13 -28
0 -20 -50 -97 -94 -147 -33 -37 -44 -44 -76 -44 -45 0 -70 8 -70 22 0 6 -16
28 -35 49 -19 22 -35 44 -35 49 0 6 -7 10 -16 10 -29 0 -10 33 24 42 32 9 32
9 30 63 -1 30 1 57 4 61 4 3 27 9 53 11 25 3 45 9 45 13 0 4 9 10 20 13 15 4
20 14 20 40 0 50 7 64 46 88 24 14 55 22 105 24 39 2 74 7 77 10 10 10 23 5
29 -11z m1173 -876 c-1 -13 -7 -41 -15 -63 -29 -79 -14 -327 23 -393 8 -13 18
-67 23 -120 5 -53 15 -108 21 -122 15 -31 78 -100 93 -100 13 0 65 -48 65 -60
0 -6 15 -27 34 -47 18 -21 50 -69 70 -108 21 -38 42 -77 46 -85 12 -21 34 -74
60 -145 12 -33 26 -65 32 -72 19 -23 -1 -60 -47 -90 -25 -15 -45 -33 -45 -39
0 -6 -7 -18 -16 -25 -13 -11 -15 -25 -10 -72 3 -32 13 -68 21 -80 8 -12 15
-30 15 -40 0 -31 45 -67 84 -67 24 0 48 -11 82 -36 26 -20 66 -46 88 -58 51
-27 67 -75 69 -205 l2 -94 -39 -33 c-22 -19 -47 -34 -56 -34 -9 0 -21 -5 -26
-10 -11 -11 -201 -31 -221 -23 -6 3 -20 17 -30 31 -15 23 -18 49 -18 178 l0
151 -34 29 c-31 26 -67 46 -176 102 -16 8 -37 21 -45 27 -31 26 -75 27 -104 4
-31 -24 -31 -24 -63 36 -9 16 -40 60 -69 96 -30 36 -54 69 -54 72 0 4 -18 34
-40 68 -22 34 -40 66 -40 71 0 23 -169 238 -208 265 -38 25 -81 43 -105 43
-28 0 -57 -28 -57 -56 0 -13 -4 -25 -9 -28 -5 -3 -12 -23 -16 -43 -9 -49 -20
-61 -60 -69 -53 -10 -70 2 -106 72 -33 66 -89 124 -120 124 -24 0 -69 -39 -69
-60 0 -9 -7 -23 -15 -30 -8 -7 -15 -17 -15 -23 0 -5 -6 -15 -14 -21 -8 -6 -31
-42 -51 -81 -21 -38 -50 -82 -65 -98 -15 -15 -31 -42 -34 -60 -6 -33 -83 -118
-118 -130 -10 -4 -18 -13 -18 -22 0 -8 -6 -15 -12 -15 -7 0 -35 -19 -62 -42
-54 -46 -135 -88 -171 -88 -30 0 -115 43 -141 71 -10 11 -35 30 -56 40 -40 20
-98 85 -98 109 0 8 7 24 15 34 8 11 15 35 15 53 0 45 26 58 91 44 67 -15 89
-14 89 3 0 20 -58 62 -97 71 -18 3 -44 16 -59 27 l-26 21 23 13 c13 7 33 13
44 14 11 0 30 7 42 15 l22 16 -32 32 c-74 73 -85 172 -23 204 35 18 115 80
133 103 8 11 33 15 95 15 46 0 90 5 98 10 8 6 59 12 112 15 72 4 101 10 115
23 16 13 38 17 109 17 83 0 94 2 137 30 31 19 67 32 103 36 30 4 57 10 59 15
3 4 24 17 48 28 23 11 55 32 71 46 16 14 33 25 37 25 4 0 43 25 86 55 43 30
94 66 114 79 49 33 279 262 279 278 0 21 166 186 191 191 45 8 49 7 49 -15z
m-1778 -22 c9 -14 10 -43 1 -74 -5 -20 -10 -23 -36 -18 -55 11 -76 71 -35 100
23 16 57 12 70 -8z m-649 -783 c4 -2 7 -10 7 -17 0 -8 19 -33 42 -56 50 -52
58 -98 35 -208 -25 -118 -70 -145 -123 -75 -26 34 -29 47 -35 148 -4 84 -11
120 -27 152 -22 42 -19 52 18 66 15 5 67 -1 83 -10z m2107 -1005 c0 -11 -7
-18 -19 -18 -11 0 -23 -4 -26 -10 -9 -14 -58 -13 -73 2 -20 20 -14 46 15 55
38 13 103 -6 103 -29z m68 0 c3 -13 -3 -18 -22 -18 -27 0 -41 14 -31 31 10 16
49 6 53 -13z m142 -233 c19 -7 55 -20 80 -29 97 -34 160 -127 160 -236 0 -74
-20 -125 -64 -166 -18 -17 -35 -36 -37 -43 -5 -14 -85 -35 -100 -26 -21 14 4
122 41 175 33 48 33 66 -1 104 -24 28 -39 36 -66 36 -18 0 -47 6 -62 14 -31
17 -81 77 -81 99 0 8 -6 20 -14 26 -19 16 -48 -1 -126 -76 -59 -57 -69 -63
-107 -63 -59 0 -79 30 -63 92 7 24 17 49 22 55 10 12 75 46 108 57 29 9 275
-6 310 -19z m-1012 -29 c2 -9 -6 -46 -18 -82 -11 -36 -23 -102 -26 -147 -8
-124 -23 -176 -66 -234 -21 -29 -38 -57 -38 -62 0 -6 -6 -14 -13 -18 -8 -4
-16 -16 -20 -25 -3 -9 -22 -24 -42 -34 -20 -9 -41 -26 -47 -37 -19 -36 -122
-132 -163 -152 -22 -11 -46 -26 -53 -32 -19 -19 -89 -16 -187 7 -156 36 -173
60 -182 256 -6 145 -7 139 41 244 25 54 80 120 101 120 18 0 147 40 169 52 11
6 52 14 90 19 44 5 89 17 119 33 26 14 53 26 60 26 7 1 30 9 52 20 22 11 44
19 49 20 5 0 17 7 26 15 15 13 112 35 135 30 6 -1 11 -9 13 -19z m-2218 -236
c0 -5 9 -19 20 -30 24 -24 25 -47 6 -120 -8 -30 -17 -78 -21 -106 -3 -28 -13
-64 -22 -80 -8 -16 -19 -51 -23 -79 -15 -90 -29 -130 -51 -148 -12 -10 -27
-16 -32 -14 -18 6 -28 59 -22 115 5 51 -23 178 -46 208 -5 6 -32 14 -60 17
-28 4 -57 12 -65 18 -16 13 -19 105 -4 114 6 3 10 14 10 24 0 34 32 48 123 54
49 4 94 10 100 16 24 18 87 27 87 11z m2627 -275 c41 -75 23 -110 -31 -60 -20
18 -26 34 -26 65 0 34 3 41 17 38 10 -2 28 -21 40 -43z m713 -109 c0 -18 -8
-44 -19 -57 -10 -13 -21 -34 -25 -47 -9 -27 -61 -57 -71 -41 -15 23 8 80 52
133 26 30 50 53 55 50 4 -3 8 -20 8 -38z m-2853 -174 c-10 -10 -17 -30 -17
-44 0 -26 -32 -72 -44 -61 -16 16 -5 68 21 95 31 32 68 41 40 10z m210 -134
c13 -12 23 -27 23 -34 0 -7 4 -14 10 -16 5 -1 12 -18 16 -35 5 -27 3 -34 -12
-39 -11 -3 -28 -10 -39 -15 -11 -5 -51 -13 -89 -18 -95 -13 -106 -5 -106 77 0
59 2 63 28 74 82 33 138 35 169 6z m2615 -78 c10 0 34 -16 54 -35 21 -21 44
-35 60 -35 43 0 57 -79 19 -116 -9 -9 -16 -10 -20 -4 -3 5 -14 10 -24 10 -10
0 -24 7 -31 16 -8 8 -27 21 -44 28 -54 23 -96 65 -96 96 0 33 37 67 54 50 6
-6 18 -10 28 -10z m-1928 -2069 c3 -4 28 -11 56 -14 28 -3 60 -13 72 -22 13
-8 38 -15 58 -15 19 -1 51 -8 70 -18 35 -17 151 -91 160 -102 3 -4 14 -10 25
-14 53 -20 164 -104 194 -148 34 -49 60 -109 61 -141 0 -24 30 -76 63 -111 15
-16 27 -34 27 -40 0 -17 40 -89 56 -102 23 -18 39 -155 25 -221 -16 -81 -14
-123 9 -166 11 -20 20 -43 20 -50 0 -7 14 -32 31 -55 37 -51 30 -70 -38 -103
-63 -31 -114 -39 -268 -47 -121 -7 -133 -9 -178 -37 -27 -16 -58 -36 -70 -43
-30 -18 -353 -10 -417 11 -25 8 -57 18 -72 21 -15 3 -39 17 -54 31 -24 22 -25
27 -14 59 10 31 66 86 88 86 4 0 19 11 32 25 20 21 24 38 30 141 7 115 7 117
-21 173 -36 71 -36 98 0 141 42 52 45 72 20 122 -25 47 -34 129 -45 398 -6
141 2 205 28 238 12 14 44 16 52 3z m-362 -72 c13 -5 32 -28 42 -49 17 -35 18
-47 8 -92 -6 -29 -13 -142 -16 -252 l-5 -199 -33 -31 c-18 -17 -38 -40 -44
-51 -10 -18 -12 -18 -34 -2 -19 13 -21 17 -7 17 32 0 21 49 -15 68 -36 19
-138 112 -138 126 0 4 -13 25 -30 46 -20 25 -30 49 -30 72 0 42 15 58 54 58
20 0 40 10 56 26 25 28 25 24 18 163 -2 34 2 47 16 55 10 6 31 21 45 33 28 24
76 29 113 12z m2084 -489 c17 -49 17 -89 -1 -96 -22 -9 -44 13 -51 52 -15 79
27 114 52 44z m-1676 -1308 c0 -29 -68 -46 -120 -31 -28 9 -40 18 -40 31 0 16
9 18 80 18 71 0 80 -2 80 -18z m380 -146 c48 -20 84 -62 105 -122 21 -61 16
-92 -25 -134 -38 -39 -59 -38 -117 4 -39 28 -61 35 -118 41 -40 4 -95 19 -128
34 -59 27 -85 60 -102 133 -9 38 18 49 139 58 123 10 201 5 246 -14z m-535
-31 c47 -46 25 -155 -30 -155 -53 0 -72 93 -31 155 21 31 31 31 61 0z m773
-179 c3 -26 -10 -45 -30 -46 -5 0 -8 18 -8 41 0 33 3 40 18 37 10 -2 18 -14
20 -32z m-2043 -151 c42 -54 28 -98 -54 -181 -50 -51 -71 -105 -50 -130 17
-21 34 -17 69 16 44 41 70 40 70 -3 0 -36 -15 -57 -41 -57 -10 0 -31 -12 -48
-26 -24 -20 -46 -27 -94 -31 -34 -3 -65 -11 -69 -17 -4 -7 -53 -11 -130 -11
l-123 0 -70 47 c-92 62 -110 88 -109 158 0 42 6 65 27 97 36 57 66 70 172 75
52 3 103 12 120 21 17 8 50 18 75 22 45 6 57 10 115 36 75 33 106 30 140 -16z
m929 -266 c10 -20 12 -36 6 -47 -5 -9 -11 -25 -14 -35 -9 -29 -40 -16 -44 17
-5 44 7 96 23 96 7 0 20 -14 29 -31z m215 -89 c-1 -37 -32 -85 -58 -88 -31 -5
-59 23 -67 65 -6 31 -2 39 32 74 l39 40 28 -32 c15 -19 27 -45 26 -59z m169
-25 c7 -14 12 -36 12 -49 0 -30 -20 -86 -30 -86 -5 0 -15 -3 -24 -6 -23 -9
-76 48 -76 82 0 33 50 84 83 84 16 0 28 -9 35 -25z m191 -77 c11 -36 10 -48
-7 -90 -17 -41 -54 -38 -70 5 -15 42 -15 56 1 90 18 41 62 38 76 -5z m189 -39
l23 -46 -20 -45 c-22 -52 -33 -62 -60 -53 -16 5 -52 51 -69 88 -6 11 79 108
92 104 6 -1 21 -23 34 -48z m180 -25 c18 -13 22 -25 22 -72 0 -54 -26 -122
-48 -122 -35 0 -88 85 -76 123 9 31 53 87 67 87 7 0 23 -7 35 -16z m196 -70
c14 -37 6 -100 -19 -137 -14 -20 -29 -37 -33 -37 -15 0 -52 68 -52 96 0 47 34
94 69 94 17 0 31 -6 35 -16z m-791 -11 c-7 -2 -19 -2 -25 0 -7 3 -2 5 12 5 14
0 19 -2 13 -5z m992 -21 c6 -4 17 -26 25 -50 12 -37 11 -47 -3 -76 -8 -19 -32
-46 -52 -62 -32 -24 -38 -26 -51 -12 -9 9 -18 42 -21 76 -5 51 -2 66 17 96 21
36 58 48 85 28z m-388 -165 c37 -31 85 -47 144 -47 31 0 53 -5 61 -15 7 -9 19
-22 26 -30 15 -16 8 -35 -12 -35 -8 0 -33 9 -57 20 -24 11 -66 20 -93 20 -54
0 -127 35 -146 70 -13 25 -13 28 8 33 33 9 41 7 69 -16z m-144 6 c-7 -2 -21
-2 -30 0 -10 3 -4 5 12 5 17 0 24 -2 18 -5z m-4038 -1003 c3 -5 1 -10 -4 -10
-6 0 -11 5 -11 10 0 6 2 10 4 10 3 0 8 -4 11 -10z m1791 -78 c-12 -12 -17 -12
-40 3 -33 22 -33 38 2 63 l27 21 13 -37 c10 -30 10 -38 -2 -50z m14 -147 c12
-19 34 -43 49 -54 35 -25 76 -111 68 -143 -4 -13 -17 -40 -30 -59 -18 -27 -30
-35 -61 -37 -58 -5 -83 4 -132 50 -37 34 -44 47 -44 77 0 20 6 45 14 56 7 11
15 43 18 70 3 28 12 62 22 77 16 25 18 25 46 12 16 -8 39 -30 50 -49z m4005
-127 c14 -6 25 -17 25 -23 0 -7 8 -20 19 -29 10 -9 21 -29 24 -44 3 -15 9 -35
12 -44 9 -23 -21 -24 -49 -3 -11 8 -34 15 -52 15 -47 0 -96 49 -92 92 2 25 9
34 28 39 38 11 57 10 85 -3z m-1909 -185 c3 -10 10 -27 16 -37 16 -31 11 -225
-7 -269 -17 -42 -34 -46 -60 -17 -44 49 -71 250 -40 309 13 26 22 31 51 31 24
0 36 -5 40 -17z m2122 -87 c30 -33 43 -76 23 -76 -22 0 -71 -63 -71 -91 0 -48
87 -118 147 -119 17 0 35 -4 38 -10 3 -5 30 -10 60 -10 42 0 60 -5 80 -23 24
-21 27 -30 29 -97 l1 -75 -63 -5 c-101 -8 -121 -48 -82 -160 11 -30 19 -62 20
-71 0 -9 6 -22 14 -28 8 -7 17 -29 21 -50 6 -34 10 -38 51 -49 25 -7 49 -10
54 -7 25 15 38 -66 19 -109 -15 -33 -31 -38 -114 -41 -39 -1 -80 -8 -92 -16
-18 -11 -25 -11 -35 -1 -6 6 -19 12 -28 12 -9 0 -25 9 -35 20 -10 11 -26 20
-35 20 -10 0 -23 7 -30 15 -7 8 -20 15 -30 15 -24 0 -34 16 -53 85 -23 86 -31
201 -18 265 6 30 12 107 13 170 2 111 1 117 -30 177 -32 62 -42 126 -22 138 6
3 10 21 10 40 0 19 4 36 9 39 4 3 14 27 21 53 7 27 14 56 17 66 4 15 9 14 41
-12 20 -16 52 -45 70 -65z m-953 -272 c11 -13 44 -53 73 -89 60 -73 142 -238
142 -285 0 -17 7 -44 14 -59 8 -15 18 -52 22 -82 10 -80 31 -120 85 -162 l49
-38 0 -64 0 -64 -39 -11 c-32 -8 -43 -18 -59 -54 -18 -37 -27 -45 -58 -50 -72
-14 -162 15 -217 69 -22 23 -27 36 -27 79 0 44 4 56 29 80 26 25 28 31 19 59
-6 18 -15 39 -19 47 -24 41 -49 100 -60 140 -8 27 -33 68 -61 101 -26 30 -48
59 -48 63 0 5 -11 22 -25 40 -55 69 -76 110 -81 157 -2 22 -11 50 -19 62 -20
29 -19 41 7 70 21 24 25 24 137 20 108 -4 117 -6 136 -29z m-5556 -562 c-1
-156 -28 -209 -84 -168 -18 13 -18 17 -5 57 7 24 17 49 20 54 4 6 13 28 19 50
31 103 51 106 50 7z m6277 -206 c17 -9 39 -25 49 -36 10 -11 26 -20 35 -20 23
0 34 -50 15 -69 -16 -16 -118 -19 -210 -6 -106 15 -165 85 -117 138 15 17 26
19 107 14 51 -3 103 -12 121 -21z m709 -17 c20 -38 13 -59 -20 -59 -22 0 -25
4 -25 33 0 27 14 57 27 57 1 0 10 -14 18 -31z m-1105 -513 c13 -27 14 -35 2
-45 -16 -16 -42 2 -42 29 0 10 -5 20 -12 22 -16 6 0 28 20 28 9 -1 24 -16 32
-34z"/>
<path d="M4637 5842 c-32 -37 -27 -313 8 -365 26 -40 65 -36 116 10 l41 38 -6
79 c-6 66 -11 85 -35 115 -15 20 -39 55 -52 77 -31 55 -52 68 -72 46z"/>
<path d="M6275 12728 c7 -78 17 -98 46 -98 34 0 35 46 3 111 -41 83 -59 79
-49 -13z"/>
<path d="M7914 9445 c-9 -27 -8 -45 1 -71 18 -53 36 -66 96 -68 54 -1 54 -1
57 31 3 35 -8 61 -47 110 -20 26 -33 33 -61 33 -31 0 -36 -4 -46 -35z"/>
<path d="M6520 5440 c0 -11 5 -20 10 -20 6 0 10 9 10 20 0 11 -4 20 -10 20 -5
0 -10 -9 -10 -20z"/>
<path d="M8585 2340 c3 -5 11 -10 16 -10 6 0 7 5 4 10 -3 6 -11 10 -16 10 -6
0 -7 -4 -4 -10z"/>
<path d="M8647 2283 c-12 -12 -7 -79 7 -99 15 -19 15 -19 37 3 21 21 21 21 3
62 -18 38 -33 49 -47 34z"/>
<path d="M8790 2166 c-18 -22 11 -139 38 -152 12 -6 30 -18 39 -27 10 -8 39
-25 64 -35 50 -22 79 -54 79 -88 0 -30 46 -60 66 -43 39 32 8 84 -129 217
-141 136 -146 140 -157 128z"/>
</g>
</svg>
